# xmcd
#
# Track frame offsets: 
#        150
#        17150
#        38437
#        59332
#        77025
#        91800
#        108487
#        126550
#        149737
#        163275
#
# Disc length: 2480 seconds
#
# Revision: 4
# Processed by: cddbd v1.5.2PL0 Copyright (c) Steve Scherf et al.
# Submitted via: ExactAudioCopyFreeDBPlugin 1.0
#
DISCID=8909ae0a
DTITLE=Various Artists / Playing For Keeps
DYEAR=1986
DGENRE=Soundtrack
TTITLE0=Pete Townshend / Life To Life ("Playing For Keeps" Title Song)
TTITLE1=Chris Thompson / It's Not Over ("Playing For Keeps" Anthem)
TTITLE2=Peter Frampton / Distant Drums
TTITLE3=Eugene Wilde / It's Gettin' Hot 
TTITLE4=Hinton Battle / Think We're Gonna Make It 
TTITLE5=Phil Collins / We Said Hello, Goodbye (Don't Look Back)
TTITLE6=Sister Sledge / Here To Stay
TTITLE7=Arcadia / Say The Word  (Theme from "Playing For Keeps")
TTITLE8=Joe Cruz / Make A Wish
TTITLE9=Julian Lennon / Stand By Me
EXTD=
EXTT0=
EXTT1=
EXTT2=
EXTT3=
EXTT4=
EXTT5=
EXTT6=
EXTT7=
EXTT8=
EXTT9=
PLAYORDER=
.
